# Blender v2.77 (sub 0) OBJ File: 'staticGeometry.blend'
# www.blender.org
mtllib grid.mtl
o grid
v 3.609186 0.219861 -13.881507
v 3.609186 0.219865 14.307000
v 3.609186 -1.263096 -13.881507
v 3.609186 -1.263092 14.307000
v -3.585929 0.219861 -13.881507
v -3.585929 0.219865 14.307000
v -3.585929 -1.263096 -13.881507
v -3.585929 -1.263092 14.307000
vt 0.9990 0.0010
vt 0.8343 0.6657
vt 0.9990 0.6657
vt 0.6657 0.0010
vt 0.0010 0.3323
vt 0.6657 0.3323
vt 0.6677 0.0010
vt 0.8323 0.6657
vt 0.8323 0.0010
vt 0.6657 0.3343
vt 0.0010 0.6657
vt 0.6657 0.6657
vt 0.3343 0.6677
vt 0.4990 0.9990
vt 0.4990 0.6677
vt 0.3323 0.6677
vt 0.0010 0.8323
vt 0.3323 0.8323
vt 0.8343 0.0010
vt 0.0010 0.0010
vt 0.6677 0.6657
vt 0.0010 0.3343
vt 0.3343 0.9990
vt 0.0010 0.6677
vn 1.0000 0.0000 0.0000
vn 0.0000 -1.0000 0.0000
vn -1.0000 0.0000 0.0000
vn 0.0000 1.0000 -0.0000
vn 0.0000 0.0000 -1.0000
vn 0.0000 0.0000 1.0000
usemtl gridMat
s off
f 2/1/1 3/2/1 1/3/1
f 8/4/2 3/5/2 4/6/2
f 6/7/3 7/8/3 8/9/3
f 2/10/4 5/11/4 6/12/4
f 3/13/5 5/14/5 1/15/5
f 8/16/6 2/17/6 6/18/6
f 2/1/1 4/19/1 3/2/1
f 8/4/2 7/20/2 3/5/2
f 6/7/3 5/21/3 7/8/3
f 2/10/4 1/22/4 5/11/4
f 3/13/5 7/23/5 5/14/5
f 8/16/6 4/24/6 2/17/6
